<svg viewBox="0 0 64 64" xmlns="http://www.w3.org/2000/svg" xml:space="preserve">
  <clipPath id="a"><path d="m64 .025-64 64v-64h64z" /></clipPath>
  <g clip-path="url(#a)">
    <path fill="#a855f7" d="M64.025 9.625c0-5.298-4.302-9.6-9.6-9.6h-44.8c-5.298 0-9.6 4.302-9.6 9.6v44.8c0 5.298 4.302 9.6 9.6 9.6h44.8c5.298 0 9.6-4.302 9.6-9.6v-44.8z" />
    <path fill="#fff" d="M31.989 22.518c-.031-4.597-.902-8.134-2.612-10.613-1.71-2.478-4.165-3.717-7.365-3.717s-5.655 1.251-7.365 3.753c-1.71 2.502-2.565 6.114-2.565 10.836v6.471c.063 4.549.953 8.043 2.671 10.483 1.718 2.439 4.153 3.659 7.306 3.659 3.185 0 5.636-1.255 7.354-3.765 1.717-2.51 2.576-6.134 2.576-10.871v-6.236zm-6.682 7.647c-.032 2.605-.31 4.538-.836 5.801-.525 1.263-1.329 1.894-2.412 1.894-1.145 0-1.988-.675-2.529-2.024-.542-1.349-.812-3.404-.812-6.165V21.13c.078-4.942 1.176-7.413 3.294-7.413 1.13 0 1.961.675 2.494 2.024.534 1.349.801 3.373.801 6.071v8.353z" />
  </g>
  <g>
    <clipPath id="b"><path d="M0 64 64 0v64H0z" /></clipPath>
    <g clip-path="url(#b)">
      <path fill="#581c87" d="M64.025 9.625c0-5.298-4.302-9.6-9.6-9.6h-44.8c-5.298 0-9.6 4.302-9.6 9.6v44.8c0 5.298 4.302 9.6 9.6 9.6h44.8c5.298 0 9.6-4.302 9.6-9.6v-44.8z" />
      <path fill="#fff" d="M44.945 55.261h-6.553V29.602L32 32.071v-5.446l12.253-5.007h.692v33.643z" />
    </g>
  </g>
</svg>
