<svg xmlns="http://www.w3.org/2000/svg">
  <symbol id="sun" viewBox="0 0 24 24">
    <title>sun</title>
    <path fill="none" stroke="currentColor" stroke-linecap="round" stroke-linejoin="round" stroke-width="2" d="M12 3v1m0 16v1m9-9h-1M4 12H3m15.364 6.364l-.707-.707M6.343 6.343l-.707-.707m12.728 0l-.707.707M6.343 17.657l-.707.707M16 12a4 4 0 11-8 0 4 4 0 018 0z" />
  </symbol>
  <symbol id="moon" viewBox="0 0 24 24">
    <title>moon</title>
    <path fill="none" stroke="currentColor" stroke-linecap="round" stroke-linejoin="round" stroke-width="2" d="M20.354 15.354A9 9 0 018.646 3.646 9.003 9.003 0 0012 21a9.003 9.003 0 008.354-5.646z" />
  </symbol>
  <symbol id="exclamation-mark" viewBox="0 0 16 16">
    <title>exclamation mark</title>
    <path d="M8 1.5c-1.736 0-3.369 0.676-4.596 1.904s-1.904 2.86-1.904 4.596c0 1.736 0.676 3.369 1.904 4.596s2.86 1.904 4.596 1.904c1.736 0 3.369-0.676 4.596-1.904s1.904-2.86 1.904-4.596c0-1.736-0.676-3.369-1.904-4.596s-2.86-1.904-4.596-1.904zM8 0v0c4.418 0 8 3.582 8 8s-3.582 8-8 8c-4.418 0-8-3.582-8-8s3.582-8 8-8zM7 11h2v2h-2zM7 3h2v6h-2z" />
  </symbol>
</svg>
