<?xml version="1.0" encoding="UTF-8"?>
<svg xmlns="http://www.w3.org/2000/svg">
  <symbol
    id="external"
    viewBox="0 0 24 24"
    fill="none"
    stroke-width="1.5"
    stroke="currentColor"
  >
    <path
      stroke-linecap="round"
      stroke-linejoin="round"
      d="M13.5 6H5.25A2.25 2.25 0 0 0 3 8.25v10.5A2.25 2.25 0 0 0 5.25 21h10.5A2.25 2.25 0 0 0 18 18.75V10.5m-10.5 6L21 3m0 0h-5.25M21 3v5.25"
    />
  </symbol>
  <symbol id="github" viewBox="0 0 20 20" fill="currentColor">
    <path
      d="M13.18 11.309c-.718 0-1.3.807-1.3 1.799c0 .994.582 1.801 1.3 1.801s1.3-.807 1.3-1.801c-.001-.992-.582-1.799-1.3-1.799zm4.526-4.683c.149-.365.155-2.439-.635-4.426c0 0-1.811.199-4.551 2.08c-.575-.16-1.548-.238-2.519-.238c-.973 0-1.945.078-2.52.238C4.74 2.399 2.929 2.2 2.929 2.2c-.789 1.987-.781 4.061-.634 4.426C1.367 7.634.8 8.845.8 10.497c0 7.186 5.963 7.301 7.467 7.301l1.734.002l1.732-.002c1.506 0 7.467-.115 7.467-7.301c0-1.652-.566-2.863-1.494-3.871zm-7.678 10.289h-.056c-3.771 0-6.709-.449-6.709-4.115c0-.879.31-1.693 1.047-2.369C5.537 9.304 7.615 9.9 9.972 9.9h.056c2.357 0 4.436-.596 5.664.531c.735.676 1.045 1.49 1.045 2.369c0 3.666-2.937 4.115-6.709 4.115zm-3.207-5.606c-.718 0-1.3.807-1.3 1.799c0 .994.582 1.801 1.3 1.801c.719 0 1.301-.807 1.301-1.801c0-.992-.582-1.799-1.301-1.799z"
    />
  </symbol>
  <symbol id="linkedin" viewBox="0 0 20 20" fill="currentColor">
    <path
      d="M5 3c0 1.062-.71 1.976-2.001 1.976C1.784 4.976 1 4.114 1 3.052C1 1.962 1.76 1 3 1s1.976.91 2 2zM1 19V6h4v13H1zm6-8.556c0-1.545-.051-2.836-.102-3.951h3.594l.178 1.723h.076c.506-.811 1.746-2 3.822-2C17.1 6.216 19 7.911 19 11.558V19h-4v-6.861c0-1.594-.607-2.81-2-2.81c-1.062 0-1.594.86-1.873 1.569c-.102.254-.127.608-.127.963V19H7v-8.556z"
    />
  </symbol>
  <symbol id="twitter" viewBox="0 0 20 20" fill="currentColor">
    <path
      d="M17.316 6.246c.008.162.011.326.011.488c0 4.99-3.797 10.742-10.74 10.742c-2.133 0-4.116-.625-5.787-1.697a7.577 7.577 0 0 0 5.588-1.562a3.779 3.779 0 0 1-3.526-2.621a3.858 3.858 0 0 0 1.705-.065a3.779 3.779 0 0 1-3.028-3.703v-.047a3.766 3.766 0 0 0 1.71.473a3.775 3.775 0 0 1-1.168-5.041a10.716 10.716 0 0 0 7.781 3.945a3.813 3.813 0 0 1-.097-.861a3.773 3.773 0 0 1 3.774-3.773a3.77 3.77 0 0 1 2.756 1.191a7.602 7.602 0 0 0 2.397-.916a3.789 3.789 0 0 1-1.66 2.088a7.55 7.55 0 0 0 2.168-.594a7.623 7.623 0 0 1-1.884 1.953z"
    />
  </symbol>
  <symbol id="calendar" viewBox="0 0 20 20" fill="currentColor">
    <path
      d="M5.25 12a.75.75 0 0 1 .75-.75h.01a.75.75 0 0 1 .75.75v.01a.75.75 0 0 1-.75.75H6a.75.75 0 0 1-.75-.75V12ZM6 13.25a.75.75 0 0 0-.75.75v.01c0 .414.336.75.75.75h.01a.75.75 0 0 0 .75-.75V14a.75.75 0 0 0-.75-.75H6ZM7.25 12a.75.75 0 0 1 .75-.75h.01a.75.75 0 0 1 .75.75v.01a.75.75 0 0 1-.75.75H8a.75.75 0 0 1-.75-.75V12ZM8 13.25a.75.75 0 0 0-.75.75v.01c0 .414.336.75.75.75h.01a.75.75 0 0 0 .75-.75V14a.75.75 0 0 0-.75-.75H8ZM9.25 10a.75.75 0 0 1 .75-.75h.01a.75.75 0 0 1 .75.75v.01a.75.75 0 0 1-.75.75H10a.75.75 0 0 1-.75-.75V10ZM10 11.25a.75.75 0 0 0-.75.75v.01c0 .414.336.75.75.75h.01a.75.75 0 0 0 .75-.75V12a.75.75 0 0 0-.75-.75H10ZM9.25 14a.75.75 0 0 1 .75-.75h.01a.75.75 0 0 1 .75.75v.01a.75.75 0 0 1-.75.75H10a.75.75 0 0 1-.75-.75V14ZM12 9.25a.75.75 0 0 0-.75.75v.01c0 .414.336.75.75.75h.01a.75.75 0 0 0 .75-.75V10a.75.75 0 0 0-.75-.75H12ZM11.25 12a.75.75 0 0 1 .75-.75h.01a.75.75 0 0 1 .75.75v.01a.75.75 0 0 1-.75.75H12a.75.75 0 0 1-.75-.75V12ZM12 13.25a.75.75 0 0 0-.75.75v.01c0 .414.336.75.75.75h.01a.75.75 0 0 0 .75-.75V14a.75.75 0 0 0-.75-.75H12ZM13.25 10a.75.75 0 0 1 .75-.75h.01a.75.75 0 0 1 .75.75v.01a.75.75 0 0 1-.75.75H14a.75.75 0 0 1-.75-.75V10ZM14 11.25a.75.75 0 0 0-.75.75v.01c0 .414.336.75.75.75h.01a.75.75 0 0 0 .75-.75V12a.75.75 0 0 0-.75-.75H14Z"
    />
    <path
      d="M5.75 2a.75.75 0 0 1 .75.75V4h7V2.75a.75.75 0 0 1 1.5 0V4h.25A2.75 2.75 0 0 1 18 6.75v8.5A2.75 2.75 0 0 1 15.25 18H4.75A2.75 2.75 0 0 1 2 15.25v-8.5A2.75 2.75 0 0 1 4.75 4H5V2.75A.75.75 0 0 1 5.75 2Zm-1 5.5c-.69 0-1.25.56-1.25 1.25v6.5c0 .69.56 1.25 1.25 1.25h10.5c.69 0 1.25-.56 1.25-1.25v-6.5c0-.69-.56-1.25-1.25-1.25H4.75Z"
    />
  </symbol>
  <symbol id="pencil" viewBox="0 0 20 20" fill="currentColor">
    <path
      d="m5.433 13.917 1.262-3.155A4 4 0 0 1 7.58 9.42l6.92-6.918a2.121 2.121 0 0 1 3 3l-6.92 6.918c-.383.383-.84.685-1.343.886l-3.154 1.262a.5.5 0 0 1-.65-.65Z"
    />
    <path
      d="M3.5 5.75c0-.69.56-1.25 1.25-1.25H10A.75.75 0 0 0 10 3H4.75A2.75 2.75 0 0 0 2 5.75v9.5A2.75 2.75 0 0 0 4.75 18h9.5A2.75 2.75 0 0 0 17 15.25V10a.75.75 0 0 0-1.5 0v5.25c0 .69-.56 1.25-1.25 1.25h-9.5c-.69 0-1.25-.56-1.25-1.25v-9.5Z"
    />
  </symbol>
  <symbol
    id="sun"
    fill="none"
    viewBox="0 0 24 24"
    stroke-width="1.5"
    stroke="currentColor"
  >
    <path
      stroke-linecap="round"
      stroke-linejoin="round"
      d="M12 3v2.25m6.364.386-1.591 1.591M21 12h-2.25m-.386 6.364-1.591-1.591M12 18.75V21m-4.773-4.227-1.591 1.591M5.25 12H3m4.227-4.773L5.636 5.636M15.75 12a3.75 3.75 0 1 1-7.5 0 3.75 3.75 0 0 1 7.5 0Z"
    />
  </symbol>
  <symbol
    id="moon"
    fill="none"
    viewBox="0 0 24 24"
    stroke-width="1.5"
    stroke="currentColor"
  >
    <path
      stroke-linecap="round"
      stroke-linejoin="round"
      d="M21.752 15.002A9.72 9.72 0 0 1 18 15.75c-5.385 0-9.75-4.365-9.75-9.75 0-1.33.266-2.597.748-3.752A9.753 9.753 0 0 0 3 11.25C3 16.635 7.365 21 12.75 21a9.753 9.753 0 0 0 9.002-5.998Z"
    />
  </symbol>
</svg>
